<mxfile host="app.diagrams.net" modified="2024-06-26T11:17:14.979Z" agent="Mozilla/5.0 (Windows NT 10.0; Win64; x64) AppleWebKit/537.36 (KHTML, like Gecko) Chrome/126.0.0.0 Safari/537.36" etag="Hng9SFQUbiXgBKWF9ddn" version="24.6.3" type="github">
  <diagram name="Page-1" id="PRXU1hZlVM8Uk4SJ7KCu">
    <mxGraphModel dx="3871" dy="2634" grid="1" gridSize="10" guides="1" tooltips="1" connect="1" arrows="1" fold="1" page="1" pageScale="1" pageWidth="827" pageHeight="1169" math="0" shadow="0">
      <root>
        <mxCell id="0" />
        <mxCell id="1" parent="0" />
        <mxCell id="YvSHBj9nITVbGV-RtpjT-1" style="edgeStyle=orthogonalEdgeStyle;rounded=0;orthogonalLoop=1;jettySize=auto;html=1;entryX=0.5;entryY=0;entryDx=0;entryDy=0;strokeWidth=2;" parent="1" source="RK07qviHWXPntt6VI_ai-1" target="RK07qviHWXPntt6VI_ai-3" edge="1">
          <mxGeometry relative="1" as="geometry" />
        </mxCell>
        <mxCell id="RK07qviHWXPntt6VI_ai-1" value="&lt;span style=&quot;font-size: 15px;&quot;&gt;&lt;font style=&quot;font-size: 15px;&quot;&gt;START&lt;/font&gt;&lt;/span&gt;" style="ellipse;whiteSpace=wrap;html=1;strokeWidth=2;fontSize=15;fontStyle=1" parent="1" vertex="1">
          <mxGeometry x="586" y="-570" width="120" height="80" as="geometry" />
        </mxCell>
        <mxCell id="POHbpeQ7061OKFFoYMC8-3" style="edgeStyle=orthogonalEdgeStyle;rounded=0;orthogonalLoop=1;jettySize=auto;html=1;entryX=0.5;entryY=0;entryDx=0;entryDy=0;strokeWidth=2;" parent="1" source="RK07qviHWXPntt6VI_ai-2" target="POHbpeQ7061OKFFoYMC8-2" edge="1">
          <mxGeometry relative="1" as="geometry" />
        </mxCell>
        <mxCell id="RK07qviHWXPntt6VI_ai-2" value="Input Data" style="shape=parallelogram;perimeter=parallelogramPerimeter;whiteSpace=wrap;html=1;fixedSize=1;strokeWidth=2;fontSize=15;fontStyle=1" parent="1" vertex="1">
          <mxGeometry x="-175" y="700" width="170" height="50" as="geometry" />
        </mxCell>
        <mxCell id="YvSHBj9nITVbGV-RtpjT-2" style="edgeStyle=orthogonalEdgeStyle;rounded=0;orthogonalLoop=1;jettySize=auto;html=1;entryX=0.5;entryY=0;entryDx=0;entryDy=0;strokeWidth=2;" parent="1" source="RK07qviHWXPntt6VI_ai-3" target="RK07qviHWXPntt6VI_ai-4" edge="1">
          <mxGeometry relative="1" as="geometry" />
        </mxCell>
        <mxCell id="RK07qviHWXPntt6VI_ai-3" value="Login" style="rounded=0;whiteSpace=wrap;html=1;strokeWidth=2;fontSize=15;fontStyle=1" parent="1" vertex="1">
          <mxGeometry x="586" y="-410" width="120" height="60" as="geometry" />
        </mxCell>
        <mxCell id="YvSHBj9nITVbGV-RtpjT-3" style="edgeStyle=orthogonalEdgeStyle;rounded=0;orthogonalLoop=1;jettySize=auto;html=1;exitX=1;exitY=0.5;exitDx=0;exitDy=0;strokeWidth=2;" parent="1" source="RK07qviHWXPntt6VI_ai-4" edge="1">
          <mxGeometry relative="1" as="geometry">
            <mxPoint x="646" y="-440" as="targetPoint" />
            <Array as="points">
              <mxPoint x="827" y="-230" />
              <mxPoint x="827" y="-440" />
              <mxPoint x="756" y="-440" />
            </Array>
          </mxGeometry>
        </mxCell>
        <mxCell id="YvSHBj9nITVbGV-RtpjT-12" value="&lt;font style=&quot;font-size: 18px;&quot;&gt;FALSE&lt;/font&gt;" style="edgeLabel;html=1;align=center;verticalAlign=middle;resizable=0;points=[];fontSize=20;fontStyle=1" parent="YvSHBj9nITVbGV-RtpjT-3" vertex="1" connectable="0">
          <mxGeometry x="-0.7938" y="2" relative="1" as="geometry">
            <mxPoint x="6" as="offset" />
          </mxGeometry>
        </mxCell>
        <mxCell id="YvSHBj9nITVbGV-RtpjT-11" style="edgeStyle=orthogonalEdgeStyle;rounded=0;orthogonalLoop=1;jettySize=auto;html=1;strokeWidth=2;" parent="1" source="RK07qviHWXPntt6VI_ai-4" edge="1">
          <mxGeometry relative="1" as="geometry">
            <mxPoint x="476" y="-50" as="targetPoint" />
          </mxGeometry>
        </mxCell>
        <mxCell id="YvSHBj9nITVbGV-RtpjT-13" value="&lt;font style=&quot;font-size: 18px;&quot;&gt;TRUE&lt;/font&gt;" style="edgeLabel;html=1;align=center;verticalAlign=middle;resizable=0;points=[];fontStyle=1" parent="YvSHBj9nITVbGV-RtpjT-11" vertex="1" connectable="0">
          <mxGeometry x="-0.6209" y="1" relative="1" as="geometry">
            <mxPoint x="1" as="offset" />
          </mxGeometry>
        </mxCell>
        <mxCell id="RK07qviHWXPntt6VI_ai-4" value="is password correct?" style="rhombus;whiteSpace=wrap;html=1;strokeWidth=2;fontSize=15;fontStyle=1" parent="1" vertex="1">
          <mxGeometry x="573.5" y="-300" width="145" height="140" as="geometry" />
        </mxCell>
        <mxCell id="YvSHBj9nITVbGV-RtpjT-20" style="edgeStyle=orthogonalEdgeStyle;rounded=0;orthogonalLoop=1;jettySize=auto;html=1;entryX=0.5;entryY=0;entryDx=0;entryDy=0;strokeWidth=2;" parent="1" source="YvSHBj9nITVbGV-RtpjT-4" target="RK07qviHWXPntt6VI_ai-2" edge="1">
          <mxGeometry relative="1" as="geometry" />
        </mxCell>
        <mxCell id="YvSHBj9nITVbGV-RtpjT-4" value="Book Registration" style="rounded=0;whiteSpace=wrap;html=1;strokeWidth=2;fontSize=15;fontStyle=1" parent="1" vertex="1">
          <mxGeometry x="-150" y="600" width="120" height="50" as="geometry" />
        </mxCell>
        <mxCell id="YvSHBj9nITVbGV-RtpjT-5" value="Borrow/Return" style="rounded=0;whiteSpace=wrap;html=1;strokeWidth=2;fontSize=15;fontStyle=1" parent="1" vertex="1">
          <mxGeometry x="77" y="843" width="140" height="50" as="geometry" />
        </mxCell>
        <mxCell id="YvSHBj9nITVbGV-RtpjT-25" style="edgeStyle=orthogonalEdgeStyle;rounded=0;orthogonalLoop=1;jettySize=auto;html=1;entryX=0.5;entryY=0;entryDx=0;entryDy=0;strokeWidth=2;" parent="1" source="YvSHBj9nITVbGV-RtpjT-6" target="YvSHBj9nITVbGV-RtpjT-24" edge="1">
          <mxGeometry relative="1" as="geometry" />
        </mxCell>
        <mxCell id="YvSHBj9nITVbGV-RtpjT-6" value="History" style="rounded=0;whiteSpace=wrap;html=1;strokeWidth=2;fontSize=15;fontStyle=1" parent="1" vertex="1">
          <mxGeometry x="310" y="610" width="120" height="50" as="geometry" />
        </mxCell>
        <mxCell id="YvSHBj9nITVbGV-RtpjT-16" style="edgeStyle=orthogonalEdgeStyle;rounded=0;orthogonalLoop=1;jettySize=auto;html=1;entryX=0.5;entryY=0;entryDx=0;entryDy=0;strokeWidth=2;" parent="1" source="YvSHBj9nITVbGV-RtpjT-7" target="YvSHBj9nITVbGV-RtpjT-15" edge="1">
          <mxGeometry relative="1" as="geometry" />
        </mxCell>
        <mxCell id="YvSHBj9nITVbGV-RtpjT-7" value="Exit" style="rounded=0;whiteSpace=wrap;html=1;strokeWidth=2;fontSize=15;fontStyle=1" parent="1" vertex="1">
          <mxGeometry x="547" y="609" width="120" height="50" as="geometry" />
        </mxCell>
        <mxCell id="YvSHBj9nITVbGV-RtpjT-8" value="" style="endArrow=none;html=1;rounded=0;strokeWidth=2;" parent="1" edge="1">
          <mxGeometry width="50" height="50" relative="1" as="geometry">
            <mxPoint x="-90" y="530" as="sourcePoint" />
            <mxPoint x="610" y="530" as="targetPoint" />
          </mxGeometry>
        </mxCell>
        <mxCell id="YvSHBj9nITVbGV-RtpjT-9" value="" style="endArrow=classic;html=1;rounded=0;strokeWidth=2;" parent="1" edge="1">
          <mxGeometry width="50" height="50" relative="1" as="geometry">
            <mxPoint x="-90" y="529" as="sourcePoint" />
            <mxPoint x="-90" y="600" as="targetPoint" />
          </mxGeometry>
        </mxCell>
        <mxCell id="YvSHBj9nITVbGV-RtpjT-10" value="" style="endArrow=classic;html=1;rounded=0;entryX=0.5;entryY=0;entryDx=0;entryDy=0;strokeWidth=2;" parent="1" edge="1">
          <mxGeometry width="50" height="50" relative="1" as="geometry">
            <mxPoint x="609" y="530" as="sourcePoint" />
            <mxPoint x="609" y="609" as="targetPoint" />
          </mxGeometry>
        </mxCell>
        <mxCell id="POHbpeQ7061OKFFoYMC8-7" style="edgeStyle=orthogonalEdgeStyle;rounded=0;orthogonalLoop=1;jettySize=auto;html=1;entryX=0.5;entryY=0;entryDx=0;entryDy=0;strokeWidth=2;exitX=0.5;exitY=1;exitDx=0;exitDy=0;" parent="1" source="YvSHBj9nITVbGV-RtpjT-5" target="POHbpeQ7061OKFFoYMC8-6" edge="1">
          <mxGeometry relative="1" as="geometry">
            <mxPoint x="147" y="990" as="sourcePoint" />
          </mxGeometry>
        </mxCell>
        <mxCell id="YvSHBj9nITVbGV-RtpjT-15" value="&lt;font style=&quot;font-size: 15px;&quot;&gt;A&lt;/font&gt;" style="ellipse;whiteSpace=wrap;html=1;aspect=fixed;fontSize=15;fontStyle=1;strokeWidth=2;" parent="1" vertex="1">
          <mxGeometry x="582" y="700" width="50" height="50" as="geometry" />
        </mxCell>
        <mxCell id="YvSHBj9nITVbGV-RtpjT-18" style="edgeStyle=orthogonalEdgeStyle;rounded=0;orthogonalLoop=1;jettySize=auto;html=1;strokeWidth=2;" parent="1" source="YvSHBj9nITVbGV-RtpjT-17" edge="1">
          <mxGeometry relative="1" as="geometry">
            <mxPoint x="646" y="-460" as="targetPoint" />
          </mxGeometry>
        </mxCell>
        <mxCell id="YvSHBj9nITVbGV-RtpjT-17" value="&lt;font style=&quot;font-size: 15px;&quot;&gt;A&lt;/font&gt;" style="ellipse;whiteSpace=wrap;html=1;aspect=fixed;fontSize=15;fontStyle=1;strokeWidth=2;" parent="1" vertex="1">
          <mxGeometry x="507" y="-484" width="50" height="50" as="geometry" />
        </mxCell>
        <mxCell id="YvSHBj9nITVbGV-RtpjT-22" value="" style="endArrow=classic;html=1;rounded=0;entryX=0.5;entryY=0;entryDx=0;entryDy=0;strokeWidth=2;" parent="1" target="YvSHBj9nITVbGV-RtpjT-5" edge="1">
          <mxGeometry width="50" height="50" relative="1" as="geometry">
            <mxPoint x="147" y="530" as="sourcePoint" />
            <mxPoint x="147" y="903" as="targetPoint" />
          </mxGeometry>
        </mxCell>
        <mxCell id="YvSHBj9nITVbGV-RtpjT-23" value="" style="endArrow=classic;html=1;rounded=0;entryX=0.5;entryY=0;entryDx=0;entryDy=0;strokeWidth=2;" parent="1" target="YvSHBj9nITVbGV-RtpjT-6" edge="1">
          <mxGeometry width="50" height="50" relative="1" as="geometry">
            <mxPoint x="370" y="530" as="sourcePoint" />
            <mxPoint x="450" y="540" as="targetPoint" />
          </mxGeometry>
        </mxCell>
        <mxCell id="YvSHBj9nITVbGV-RtpjT-27" style="edgeStyle=orthogonalEdgeStyle;rounded=0;orthogonalLoop=1;jettySize=auto;html=1;strokeWidth=2;" parent="1" source="YvSHBj9nITVbGV-RtpjT-24" edge="1">
          <mxGeometry relative="1" as="geometry">
            <mxPoint x="370" y="831" as="targetPoint" />
          </mxGeometry>
        </mxCell>
        <mxCell id="YvSHBj9nITVbGV-RtpjT-24" value="Generate Data" style="rounded=0;whiteSpace=wrap;html=1;strokeWidth=2;fontSize=15;fontStyle=1" parent="1" vertex="1">
          <mxGeometry x="310" y="730" width="120" height="50" as="geometry" />
        </mxCell>
        <mxCell id="YvSHBj9nITVbGV-RtpjT-30" style="edgeStyle=orthogonalEdgeStyle;rounded=0;orthogonalLoop=1;jettySize=auto;html=1;entryX=0.5;entryY=0;entryDx=0;entryDy=0;strokeWidth=2;exitX=0.5;exitY=1;exitDx=0;exitDy=0;" parent="1" source="YvSHBj9nITVbGV-RtpjT-31" target="YvSHBj9nITVbGV-RtpjT-29" edge="1">
          <mxGeometry relative="1" as="geometry" />
        </mxCell>
        <mxCell id="YvSHBj9nITVbGV-RtpjT-29" value="&lt;span style=&quot;font-size: 15px;&quot;&gt;&lt;font style=&quot;font-size: 15px;&quot;&gt;End&lt;/font&gt;&lt;/span&gt;" style="ellipse;whiteSpace=wrap;html=1;strokeWidth=2;fontSize=15;fontStyle=1" parent="1" vertex="1">
          <mxGeometry x="330" y="940" width="80" height="50" as="geometry" />
        </mxCell>
        <mxCell id="YvSHBj9nITVbGV-RtpjT-31" value="Show Data" style="shape=parallelogram;perimeter=parallelogramPerimeter;whiteSpace=wrap;html=1;fixedSize=1;strokeWidth=2;fontSize=15;fontStyle=1" parent="1" vertex="1">
          <mxGeometry x="293.5" y="833" width="152.5" height="50" as="geometry" />
        </mxCell>
        <mxCell id="POHbpeQ7061OKFFoYMC8-2" value="Data saved in database" style="rounded=0;whiteSpace=wrap;html=1;strokeWidth=2;fontSize=15;fontStyle=1" parent="1" vertex="1">
          <mxGeometry x="-160" y="793" width="140" height="50" as="geometry" />
        </mxCell>
        <mxCell id="POHbpeQ7061OKFFoYMC8-4" style="edgeStyle=orthogonalEdgeStyle;rounded=0;orthogonalLoop=1;jettySize=auto;html=1;entryX=0.5;entryY=0;entryDx=0;entryDy=0;strokeWidth=2;exitX=0.5;exitY=1;exitDx=0;exitDy=0;" parent="1" source="POHbpeQ7061OKFFoYMC8-2" target="POHbpeQ7061OKFFoYMC8-27" edge="1">
          <mxGeometry relative="1" as="geometry">
            <mxPoint x="-90" y="911.5" as="sourcePoint" />
          </mxGeometry>
        </mxCell>
        <mxCell id="POHbpeQ7061OKFFoYMC8-5" value="&lt;span style=&quot;font-size: 15px;&quot;&gt;&lt;font style=&quot;font-size: 15px;&quot;&gt;End&lt;/font&gt;&lt;/span&gt;" style="ellipse;whiteSpace=wrap;html=1;strokeWidth=2;fontSize=15;fontStyle=1" parent="1" vertex="1">
          <mxGeometry x="-130" y="1060" width="80" height="50" as="geometry" />
        </mxCell>
        <mxCell id="POHbpeQ7061OKFFoYMC8-38" style="edgeStyle=orthogonalEdgeStyle;rounded=0;orthogonalLoop=1;jettySize=auto;html=1;entryX=0.5;entryY=0;entryDx=0;entryDy=0;strokeWidth=2;" parent="1" source="POHbpeQ7061OKFFoYMC8-6" target="POHbpeQ7061OKFFoYMC8-37" edge="1">
          <mxGeometry relative="1" as="geometry" />
        </mxCell>
        <mxCell id="POHbpeQ7061OKFFoYMC8-6" value="Reading RFID" style="rounded=0;whiteSpace=wrap;html=1;strokeWidth=2;fontSize=15;fontStyle=1" parent="1" vertex="1">
          <mxGeometry x="74.75" y="940" width="144.5" height="50" as="geometry" />
        </mxCell>
        <mxCell id="POHbpeQ7061OKFFoYMC8-28" style="edgeStyle=orthogonalEdgeStyle;rounded=0;orthogonalLoop=1;jettySize=auto;html=1;strokeWidth=2;entryX=0.5;entryY=0;entryDx=0;entryDy=0;" parent="1" source="POHbpeQ7061OKFFoYMC8-27" target="POHbpeQ7061OKFFoYMC8-29" edge="1">
          <mxGeometry relative="1" as="geometry">
            <mxPoint x="-90" y="1000" as="targetPoint" />
          </mxGeometry>
        </mxCell>
        <mxCell id="POHbpeQ7061OKFFoYMC8-27" value="Generate RFID" style="rounded=0;whiteSpace=wrap;html=1;strokeWidth=2;fontSize=15;fontStyle=1" parent="1" vertex="1">
          <mxGeometry x="-160" y="880" width="140" height="50" as="geometry" />
        </mxCell>
        <mxCell id="POHbpeQ7061OKFFoYMC8-30" style="edgeStyle=orthogonalEdgeStyle;rounded=0;orthogonalLoop=1;jettySize=auto;html=1;strokeWidth=2;" parent="1" source="POHbpeQ7061OKFFoYMC8-29" target="POHbpeQ7061OKFFoYMC8-5" edge="1">
          <mxGeometry relative="1" as="geometry" />
        </mxCell>
        <mxCell id="POHbpeQ7061OKFFoYMC8-29" value="Show RFID&lt;div&gt;generated&lt;/div&gt;" style="shape=parallelogram;perimeter=parallelogramPerimeter;whiteSpace=wrap;html=1;fixedSize=1;strokeWidth=2;fontSize=15;fontStyle=1" parent="1" vertex="1">
          <mxGeometry x="-175" y="970" width="170" height="50" as="geometry" />
        </mxCell>
        <mxCell id="POHbpeQ7061OKFFoYMC8-47" style="edgeStyle=orthogonalEdgeStyle;rounded=0;orthogonalLoop=1;jettySize=auto;html=1;entryX=0.5;entryY=0;entryDx=0;entryDy=0;strokeWidth=2;" parent="1" source="POHbpeQ7061OKFFoYMC8-37" target="POHbpeQ7061OKFFoYMC8-41" edge="1">
          <mxGeometry relative="1" as="geometry" />
        </mxCell>
        <mxCell id="POHbpeQ7061OKFFoYMC8-37" value="Input user data" style="shape=parallelogram;perimeter=parallelogramPerimeter;whiteSpace=wrap;html=1;fixedSize=1;strokeWidth=2;fontSize=15;fontStyle=1" parent="1" vertex="1">
          <mxGeometry x="62" y="1060" width="170" height="50" as="geometry" />
        </mxCell>
        <mxCell id="POHbpeQ7061OKFFoYMC8-44" style="edgeStyle=orthogonalEdgeStyle;rounded=0;orthogonalLoop=1;jettySize=auto;html=1;strokeWidth=2;" parent="1" source="POHbpeQ7061OKFFoYMC8-39" target="POHbpeQ7061OKFFoYMC8-43" edge="1">
          <mxGeometry relative="1" as="geometry" />
        </mxCell>
        <mxCell id="POHbpeQ7061OKFFoYMC8-39" value="User data saved&lt;div&gt;in database&lt;/div&gt;" style="rounded=0;whiteSpace=wrap;html=1;strokeWidth=2;fontSize=15;fontStyle=1" parent="1" vertex="1">
          <mxGeometry x="-130" y="1270" width="144.5" height="50" as="geometry" />
        </mxCell>
        <mxCell id="POHbpeQ7061OKFFoYMC8-42" style="edgeStyle=orthogonalEdgeStyle;rounded=0;orthogonalLoop=1;jettySize=auto;html=1;entryX=0.5;entryY=0;entryDx=0;entryDy=0;strokeWidth=2;" parent="1" source="POHbpeQ7061OKFFoYMC8-41" target="POHbpeQ7061OKFFoYMC8-39" edge="1">
          <mxGeometry relative="1" as="geometry" />
        </mxCell>
        <mxCell id="POHbpeQ7061OKFFoYMC8-51" value="&lt;span style=&quot;font-size: 18px;&quot;&gt;&lt;b&gt;TRUE&lt;/b&gt;&lt;/span&gt;" style="edgeLabel;html=1;align=center;verticalAlign=middle;resizable=0;points=[];" parent="POHbpeQ7061OKFFoYMC8-42" vertex="1" connectable="0">
          <mxGeometry x="-0.4248" y="1" relative="1" as="geometry">
            <mxPoint x="-14" as="offset" />
          </mxGeometry>
        </mxCell>
        <mxCell id="POHbpeQ7061OKFFoYMC8-49" style="edgeStyle=orthogonalEdgeStyle;rounded=0;orthogonalLoop=1;jettySize=auto;html=1;exitX=1;exitY=0.5;exitDx=0;exitDy=0;strokeWidth=2;" parent="1" source="POHbpeQ7061OKFFoYMC8-41" edge="1">
          <mxGeometry relative="1" as="geometry">
            <mxPoint x="150.75" y="1015" as="targetPoint" />
            <mxPoint x="150" y="1270" as="sourcePoint" />
            <Array as="points">
              <mxPoint x="300" y="1220" />
              <mxPoint x="300" y="1015" />
            </Array>
          </mxGeometry>
        </mxCell>
        <mxCell id="POHbpeQ7061OKFFoYMC8-50" value="&lt;font style=&quot;font-size: 15px;&quot;&gt;FALSE&lt;/font&gt;" style="edgeLabel;html=1;align=center;verticalAlign=middle;resizable=0;points=[];fontStyle=1" parent="POHbpeQ7061OKFFoYMC8-49" vertex="1" connectable="0">
          <mxGeometry x="-0.833" y="1" relative="1" as="geometry">
            <mxPoint x="6" y="-1" as="offset" />
          </mxGeometry>
        </mxCell>
        <mxCell id="POHbpeQ7061OKFFoYMC8-41" value="Did user input&lt;div&gt;the data?&lt;/div&gt;" style="rhombus;whiteSpace=wrap;html=1;strokeWidth=2;fontSize=15;fontStyle=1" parent="1" vertex="1">
          <mxGeometry x="74.25" y="1150" width="145" height="140" as="geometry" />
        </mxCell>
        <mxCell id="POHbpeQ7061OKFFoYMC8-46" style="edgeStyle=orthogonalEdgeStyle;rounded=0;orthogonalLoop=1;jettySize=auto;html=1;entryX=0.5;entryY=0;entryDx=0;entryDy=0;strokeWidth=2;" parent="1" source="POHbpeQ7061OKFFoYMC8-43" target="POHbpeQ7061OKFFoYMC8-45" edge="1">
          <mxGeometry relative="1" as="geometry" />
        </mxCell>
        <mxCell id="POHbpeQ7061OKFFoYMC8-43" value="Trigger Alert" style="rounded=0;whiteSpace=wrap;html=1;strokeWidth=2;fontSize=15;fontStyle=1" parent="1" vertex="1">
          <mxGeometry x="-130" y="1360" width="144.5" height="50" as="geometry" />
        </mxCell>
        <mxCell id="POHbpeQ7061OKFFoYMC8-53" style="edgeStyle=orthogonalEdgeStyle;rounded=0;orthogonalLoop=1;jettySize=auto;html=1;entryX=0.5;entryY=0;entryDx=0;entryDy=0;strokeWidth=2;" parent="1" source="POHbpeQ7061OKFFoYMC8-45" target="POHbpeQ7061OKFFoYMC8-52" edge="1">
          <mxGeometry relative="1" as="geometry" />
        </mxCell>
        <mxCell id="POHbpeQ7061OKFFoYMC8-45" value="Show &quot;user&amp;nbsp;successfully&lt;div&gt;borrowed book/s: ...&quot;&lt;/div&gt;" style="shape=parallelogram;perimeter=parallelogramPerimeter;whiteSpace=wrap;html=1;fixedSize=1;strokeWidth=2;fontSize=15;fontStyle=1" parent="1" vertex="1">
          <mxGeometry x="-187.32" y="1460" width="259.13" height="50" as="geometry" />
        </mxCell>
        <mxCell id="POHbpeQ7061OKFFoYMC8-52" value="&lt;span style=&quot;font-size: 15px;&quot;&gt;&lt;font style=&quot;font-size: 15px;&quot;&gt;End&lt;/font&gt;&lt;/span&gt;" style="ellipse;whiteSpace=wrap;html=1;strokeWidth=2;fontSize=15;fontStyle=1" parent="1" vertex="1">
          <mxGeometry x="-97.76" y="1560" width="80" height="50" as="geometry" />
        </mxCell>
        <mxCell id="Vg0lB_qaHBw4f4yb_gA_-1" value="" style="rhombus;whiteSpace=wrap;html=1;" vertex="1" parent="1">
          <mxGeometry x="-120" y="20" width="140" height="140" as="geometry" />
        </mxCell>
      </root>
    </mxGraphModel>
  </diagram>
</mxfile>
